# xmcd
#
# Track frame offsets:
#	157
#	15750
#	30000
#	44212
#	56250
#	69917
#	82602
#	96390
#	109180
#	123205
#	136892
#	149542
#	160707
#	173152
#	183252
#	199635
#
# Disc length: 2809 seconds
#
# Revision: 5
# Processed by: cddbd v1.5.1PL2 Copyright (c) Steve Scherf et al.
# Submitted via: MusicManager 7.3.0.0 
#
DISCID=c00af710
DTITLE=John Lee Hooker - The Ultimate Collection Disc 1
DYEAR=1991
DGENRE=Blues
TTITLE0=Teachin' the Blues
TTITLE1=Boogie Chillen'
TTITLE2=Sally Mae
TTITLE3=Let Your Daddy Ride
TTITLE4=Crawlin' King Snake
TTITLE5=Weeping Willow Boogie
TTITLE6=Hobo Blues
TTITLE7=Huckle Up Baby
TTITLE8=I'm In The Mood
TTITLE9=John L's House Rent Boogie
TTITLE10=No More Doggin'
TTITLE11=I Need Some Money
TTITLE12=Frisco Blues
TTITLE13=Dimples
TTITLE14=It Serves Me Right
TTITLE15=Bottle Up and Go
EXTD=YEAR: 1991 ID3G: 0
EXTT0=
EXTT1=
EXTT2=
EXTT3=
EXTT4=
EXTT5=
EXTT6=
EXTT7=
EXTT8=
EXTT9=
EXTT10=
EXTT11=
EXTT12=
EXTT13=
EXTT14=
EXTT15=
PLAYORDER=
